<svg width="62" height="44" viewBox="0 0 62 44" fill="none" xmlns="http://www.w3.org/2000/svg">
  <path d="M10.2952 43.9077H6.61113L4.31298 39.4218H3.50552V43.9117H0.399902V32.7205H3.50552V37.0024H4.35956L6.63054 32.7205H10.1244L7.14297 38.0455L10.2952 43.9077Z" fill="black"></path>
  <path d="M19.88 36.3437C19.897 37.0121 19.7475 37.6741 19.4452 38.269C19.1832 38.7898 18.7453 39.1988 18.2108 39.4218L20.6176 43.9273H17.0151L15.3885 40.0336H14.2666V43.9273H11.1804V32.7205H15.4041C16.9025 32.7205 18.0205 33.0145 18.7659 33.5988C19.5112 34.1831 19.88 35.1085 19.88 36.3437ZM16.658 36.4652C16.6996 36.1126 16.6051 35.7572 16.394 35.4732C16.1185 35.2668 15.7761 35.173 15.4351 35.2104H14.2705V37.7788H15.4079C15.756 37.8147 16.1052 37.7213 16.3901 37.5161C16.6095 37.2135 16.7054 36.8373 16.658 36.4652Z" fill="black"></path>
  <path d="M28.1951 43.9077L27.7059 41.9824H24.282L23.7929 43.9077H20.5281L24.2082 32.7205H27.9L31.6345 43.9077H28.1951ZM25.994 35.183L25.7145 36.3594L24.9148 39.4963H27.0848L26.3084 36.379L26.0405 35.2026L25.994 35.183Z" fill="black"></path>
  <path d="M42.3257 43.9077H38.6339L36.3474 39.4218H35.5166V43.9117H32.4304V32.7205H35.5166V37.0024H36.3901L38.6649 32.7205H42.1588L39.1813 38.0455L42.3257 43.9077Z" fill="black"></path>
  <path d="M46.3008 41.2962H51.0835L51.0252 43.9077H43.2146V32.7205H50.835L50.8777 35.3595H46.3008V37.0024H50.0897V39.3866H46.3086L46.3008 41.2962Z" fill="black"></path>
  <path d="M61.5999 43.9077H59.4415L55.7497 38.7474L55.0703 37.7475H55.0431V38.9552V43.892H52.2947V32.7205H54.8646L58.1721 37.524L58.8514 38.5239H58.8825L58.8514 37.3475V32.7205H61.5688L61.5999 43.9077Z" fill="black"></path>
  <path d="M40.5166 25.67H49.5074L47.2325 16.6041L41.4095 11.5889L42.0151 15.0748L44.0143 16.5884V19.6156L40.5166 25.67Z" fill="black"></path>
  <path d="M33.8435 19.1098L39.352 19.102L39.2472 10.3772L33.5756 6.25212L33.595 2.95044L31.3706 7.41672L36.1144 11.7262L33.8435 19.1098Z" fill="black"></path>
  <path d="M27.6361 0.181885L16.7625 7.51067L21.1026 13.3768L9.46045 28.8069H27.4847L31.1998 12.275L24.775 6.04413L27.6361 0.181885Z" fill="black"></path>
</svg>
